<svg width="37" height="37" viewBox="0 0 37 37" fill="none" xmlns="http://www.w3.org/2000/svg">
<path d="M33 19C33 22.4478 31.6304 25.7544 29.1924 28.1924C26.7544 30.6304 23.4478 32 20 32C16.5522 32 13.2456 30.6304 10.8076 28.1924C8.36965 25.7544 7 22.4478 7 19C7 15.5522 8.36965 12.2456 10.8076 9.80761C13.2456 7.36964 16.5522 6 20 6C23.4478 6 26.7544 7.36964 29.1924 9.80761C31.6304 12.2456 33 15.5522 33 19ZM15.2507 18.4145C15.2507 18.1838 15.2053 17.9554 15.117 17.7422C15.0287 17.5291 14.8993 17.3355 14.7362 17.1724C14.5731 17.0093 14.3794 16.8799 14.1663 16.7916C13.9532 16.7033 13.7248 16.6579 13.4941 16.6579C13.0282 16.6579 12.5814 16.8429 12.252 17.1724C11.9226 17.5018 11.7375 17.9486 11.7375 18.4145C11.7375 18.8803 11.9226 19.3271 12.252 19.6566C12.5814 19.986 13.0282 20.1711 13.4941 20.1711C13.7248 20.1711 13.9532 20.1256 14.1663 20.0374C14.3794 19.9491 14.5731 19.8197 14.7362 19.6566C14.8993 19.4935 15.0287 19.2998 15.117 19.0867C15.2053 18.8736 15.2507 18.6451 15.2507 18.4145ZM28.2625 18.4145C28.2625 17.9486 28.0774 17.5018 27.748 17.1724C27.4186 16.8429 26.9718 16.6579 26.5059 16.6579C26.04 16.6579 25.5933 16.8429 25.2638 17.1724C24.9344 17.5018 24.7493 17.9486 24.7493 18.4145C24.7493 18.8803 24.9344 19.3271 25.2638 19.6566C25.5933 19.986 26.04 20.1711 26.5059 20.1711C26.9718 20.1711 27.4186 19.986 27.748 19.6566C28.0774 19.3271 28.2625 18.8803 28.2625 18.4145ZM15.0673 24.8671C18.2848 28.611 24.1815 27.9486 25.8139 23.1165C25.8816 22.9172 25.9008 22.7046 25.8699 22.4964C25.8391 22.2882 25.759 22.0903 25.6365 21.9192C25.5139 21.7481 25.3524 21.6086 25.1652 21.5124C24.978 21.4161 24.7705 21.3659 24.5601 21.3658H15.44C15.2353 21.3662 15.0334 21.413 14.8496 21.5027C14.6657 21.5923 14.5047 21.7224 14.3788 21.8831C14.2528 22.0439 14.1652 22.231 14.1226 22.4303C14.08 22.6296 14.0835 22.836 14.1328 23.0337C14.3024 23.7276 14.6139 24.3388 15.0673 24.8671Z" fill="#FCC145"/>
<path d="M13.4939 20.1714C14.464 20.1714 15.2505 19.3849 15.2505 18.4148C15.2505 17.4447 14.464 16.6582 13.4939 16.6582C12.5238 16.6582 11.7373 17.4447 11.7373 18.4148C11.7373 19.3849 12.5238 20.1714 13.4939 20.1714Z" fill="#020202"/>
<path d="M26.5061 20.1714C27.4762 20.1714 28.2627 19.3849 28.2627 18.4148C28.2627 17.4447 27.4762 16.6582 26.5061 16.6582C25.5359 16.6582 24.7495 17.4447 24.7495 18.4148C24.7495 19.3849 25.5359 20.1714 26.5061 20.1714Z" fill="#020202"/>
<path d="M25.8137 23.1169C24.1813 27.949 18.2845 28.6114 15.0671 24.8676C14.6136 24.3392 14.3021 23.7281 14.1326 23.0341C14.0832 22.8364 14.0797 22.6301 14.1223 22.4307C14.1649 22.2314 14.2525 22.0443 14.3785 21.8836C14.5044 21.7228 14.6654 21.5927 14.8493 21.5031C15.0332 21.4135 15.2351 21.3667 15.4397 21.3662H24.5598C24.7703 21.3663 24.9777 21.4166 25.1649 21.5128C25.3521 21.6091 25.5136 21.7485 25.6362 21.9196C25.7588 22.0907 25.8388 22.2886 25.8697 22.4968C25.9005 22.705 25.8813 22.9176 25.8137 23.1169Z" fill="#020202"/>
</svg>
