<svg width="37" height="37" viewBox="0 0 37 37" fill="none" xmlns="http://www.w3.org/2000/svg">
<path d="M33 19C33 20.7072 32.6638 22.3977 32.0105 23.9749C31.3571 25.5521 30.3996 26.9852 29.1924 28.1924C27.9853 29.3995 26.5521 30.3571 24.9749 31.0104C23.3977 31.6637 21.7072 32 20 32C16.5522 32 13.2456 30.6304 10.8076 28.1924C8.36961 25.7544 7 22.4478 7 19C7 15.5522 8.36961 12.2456 10.8076 9.80761C13.2456 7.36964 16.5522 6 20 6C23.4478 6 26.7544 7.36964 29.1924 9.80761C31.6304 12.2456 33 15.5522 33 19ZM13.5199 20.1946C13.7529 20.1926 13.983 20.1139 14.197 19.9631C14.4109 19.8124 14.6046 19.5924 14.767 19.3158C14.9293 19.0392 15.0572 18.7114 15.1432 18.3512C15.2292 17.9909 15.2717 17.6052 15.2683 17.2161C15.2615 16.4302 15.068 15.6782 14.7304 15.1254C14.3928 14.5727 13.9388 14.2644 13.4682 14.2685C13.2352 14.2706 13.0052 14.3492 12.7912 14.5C12.5772 14.6508 12.3835 14.8708 12.2212 15.1473C12.0588 15.4239 11.931 15.7517 11.845 16.112C11.7589 16.4722 11.7164 16.858 11.7198 17.2471C11.7267 18.0329 11.9202 18.7849 12.2578 19.3377C12.5953 19.8905 13.0494 20.1987 13.5199 20.1946ZM26.5318 20.1946C26.7648 20.1926 26.9948 20.1139 27.2088 19.9631C27.4228 19.8124 27.6165 19.5924 27.7788 19.3158C27.9412 19.0392 28.069 18.7114 28.155 18.3512C28.2411 17.9909 28.2836 17.6052 28.2802 17.2161C28.2733 16.4302 28.0798 15.6782 27.7422 15.1254C27.4047 14.5727 26.9506 14.2644 26.4801 14.2685C26.2471 14.2706 26.017 14.3492 25.803 14.5C25.5891 14.6508 25.3954 14.8708 25.233 15.1473C25.0707 15.4239 24.9428 15.7517 24.8568 16.112C24.7708 16.4722 24.7283 16.858 24.7317 17.2471C24.7385 18.0329 24.932 18.7849 25.2696 19.3377C25.6072 19.8905 26.0612 20.1987 26.5318 20.1946ZM25.4354 24.0628C26.4054 22.2648 25.8691 21.3658 23.8266 21.3658H15.4399C15.2266 21.3656 15.0163 21.4159 14.8261 21.5128C14.636 21.6097 14.4714 21.7503 14.3457 21.9233C14.22 22.0962 14.1368 22.2966 14.1029 22.508C14.069 22.7195 14.0853 22.9361 14.1506 23.1401C15.0259 25.8608 17.6697 27.4281 20.5086 27.2507C21.6758 27.1797 22.7246 26.7913 23.6551 26.0855C24.428 25.502 25.0214 24.8277 25.4354 24.0628Z" fill="#FCC145"/>
<path d="M11.7195 17.2469C11.7338 18.8834 12.5397 20.203 13.5196 20.1945C14.4995 20.1859 15.2823 18.8524 15.268 17.216C15.2538 15.5795 14.4478 14.2599 13.4679 14.2684C12.488 14.277 11.7052 15.6105 11.7195 17.2469Z" fill="#020202"/>
<path d="M24.7317 17.2469C24.746 18.8834 25.5519 20.203 26.5318 20.1945C27.5117 20.1859 28.2945 18.8524 28.2803 17.216C28.266 15.5795 27.46 14.2599 26.4801 14.2684C25.5002 14.277 24.7174 15.6105 24.7317 17.2469Z" fill="#020202"/>
<path d="M25.4351 24.0632C25.0211 24.8281 24.4277 25.5024 23.6549 26.086C22.7243 26.7918 21.6755 27.1801 20.5084 27.2511C17.6694 27.4285 15.0257 25.8612 14.1503 23.1406C14.0851 22.9365 14.0688 22.7199 14.1027 22.5085C14.1366 22.297 14.2198 22.0966 14.3454 21.9237C14.4711 21.7507 14.6357 21.6101 14.8259 21.5132C15.016 21.4164 15.2263 21.366 15.4397 21.3662H23.8264C25.8688 21.3662 26.4051 22.2652 25.4351 24.0632Z" fill="#020202"/>
</svg>
