<svg width="28" height="28" viewBox="0 0 28 28" fill="none" xmlns="http://www.w3.org/2000/svg">
<path fill-rule="evenodd" clip-rule="evenodd" d="M12.6 20.3C16.8526 20.3 20.3 16.8526 20.3 12.6C20.3 8.34741 16.8526 4.9 12.6 4.9C8.34741 4.9 4.9 8.34741 4.9 12.6C4.9 16.8526 8.34741 20.3 12.6 20.3ZM12.6 21.7C17.6258 21.7 21.7 17.6258 21.7 12.6C21.7 7.57421 17.6258 3.5 12.6 3.5C7.57421 3.5 3.5 7.57421 3.5 12.6C3.5 17.6258 7.57421 21.7 12.6 21.7Z" fill="#121212"/>
<path fill-rule="evenodd" clip-rule="evenodd" d="M18.0954 18.113C18.3689 17.8398 18.8121 17.84 19.0854 18.1135L24.2951 23.3284C24.5684 23.6019 24.5681 24.0451 24.2946 24.3183C24.0211 24.5916 23.5779 24.5914 23.3047 24.3178L18.0949 19.1029C17.8217 18.8294 17.8219 18.3862 18.0954 18.113Z" fill="#121212"/>
</svg>
