<svg width="30" height="35" viewBox="0 0 30 35" fill="none" xmlns="http://www.w3.org/2000/svg">
<path fill-rule="evenodd" clip-rule="evenodd" d="M30 15.9206V24.6591C30 30.0782 30 32.7877 28.7765 33.9716C28.193 34.5363 27.4565 34.891 26.6718 34.9852C25.0267 35.1829 23.1055 33.3986 19.263 29.8302C17.5647 28.2529 16.7153 27.4642 15.7328 27.2565C15.249 27.1541 14.751 27.1541 14.2672 27.2565C13.2847 27.4642 12.4353 28.2529 10.7369 29.8302C6.89455 33.3986 4.97337 35.1829 3.3282 34.9852C2.54358 34.891 1.80702 34.5363 1.22352 33.9716C1.98682e-07 32.7877 0 30.0782 0 24.6591V15.9206C0 8.4156 -1.98682e-07 4.66306 2.1967 2.33153C4.3934 0 7.92893 0 15 0C22.071 0 25.6067 0 27.8033 2.33153C30 4.66306 30 8.4156 30 15.9206ZM8.75 7.00001C8.75 6.27514 9.30965 5.68751 10 5.68751H20C20.6903 5.68751 21.25 6.27514 21.25 7.00001C21.25 7.72488 20.6903 8.31251 20 8.31251H10C9.30965 8.31251 8.75 7.72488 8.75 7.00001Z" fill="#15F166"/>
</svg>
